<?xml version="1.0" encoding="UTF-8"?>
<svg version="1.1" xmlns="http://www.w3.org/2000/svg" width="80" height="80">
<path d="M0 0 C0.78761719 0.44730469 1.57523438 0.89460937 2.38671875 1.35546875 C11.30433941 6.85343984 17.61159767 14.70675848 20.54638672 24.8972168 C22.65910063 34.69097619 22.06290176 46.30058676 17 55 C16.55269531 55.78761719 16.10539062 56.57523438 15.64453125 57.38671875 C10.14656016 66.30433941 2.29324152 72.61159767 -7.8972168 75.54638672 C-17.69097619 77.65910063 -29.30058676 77.06290176 -38 72 C-38.78761719 71.55269531 -39.57523438 71.10539062 -40.38671875 70.64453125 C-49.30433941 65.14656016 -55.61159767 57.29324152 -58.54638672 47.1027832 C-60.65910063 37.30902381 -60.06290176 25.69941324 -55 17 C-54.55269531 16.21238281 -54.10539062 15.42476562 -53.64453125 14.61328125 C-48.14656016 5.69566059 -40.29324152 -0.61159767 -30.1027832 -3.54638672 C-20.30902381 -5.65910063 -8.69941324 -5.06290176 0 0 Z M-47.1796875 8.9765625 C-54.70815367 17.34511502 -57.84839577 26.88741018 -58 38 C-57.11711627 48.80715085 -52.05152312 58.75673788 -44 66 C-34.915703 72.48878357 -25.66441311 75.70783405 -14.41796875 74.7890625 C-3.63058368 72.98833365 6.34976742 67.51032561 12.7578125 58.5390625 C18.50156012 49.29912068 21.19593151 39.84591045 19.375 28.9375 C16.71544693 17.8237385 10.66265726 8.67036803 0.9375 2.625 C-15.43675143 -6.44722038 -33.49074014 -3.71480975 -47.1796875 8.9765625 Z " fill="#FFFFFF" transform="translate(59,4)"/>
<path d="M0 0 C1.98 0 3.96 0 6 0 C6 6.6 6 13.2 6 20 C4.02 20 2.04 20 0 20 C0 13.4 0 6.8 0 0 Z " fill="#FFFFFF" transform="translate(43,31)"/>
<path d="M0 0 C1.98 0 3.96 0 6 0 C6 6.6 6 13.2 6 20 C4.02 20 2.04 20 0 20 C0 13.4 0 6.8 0 0 Z " fill="#FFFFFF" transform="translate(31,31)"/>
</svg>
