<?xml version="1.0" encoding="UTF-8"?>
<svg version="1.1" xmlns="http://www.w3.org/2000/svg" width="80" height="80">
<path d="M0 0 C0.78761719 0.44730469 1.57523438 0.89460937 2.38671875 1.35546875 C11.30433941 6.85343984 17.61159767 14.70675848 20.54638672 24.8972168 C22.65910063 34.69097619 22.06290176 46.30058676 17 55 C16.55269531 55.78761719 16.10539062 56.57523438 15.64453125 57.38671875 C10.14656016 66.30433941 2.29324152 72.61159767 -7.8972168 75.54638672 C-17.69097619 77.65910063 -29.30058676 77.06290176 -38 72 C-38.78761719 71.55269531 -39.57523438 71.10539062 -40.38671875 70.64453125 C-49.30433941 65.14656016 -55.61159767 57.29324152 -58.54638672 47.1027832 C-60.65910063 37.30902381 -60.06290176 25.69941324 -55 17 C-54.55269531 16.21238281 -54.10539062 15.42476562 -53.64453125 14.61328125 C-48.14656016 5.69566059 -40.29324152 -0.61159767 -30.1027832 -3.54638672 C-20.30902381 -5.65910063 -8.69941324 -5.06290176 0 0 Z M-47.1796875 8.9765625 C-54.70815367 17.34511502 -57.84839577 26.88741018 -58 38 C-57.11711627 48.80715085 -52.05152312 58.75673788 -44 66 C-34.915703 72.48878357 -25.66441311 75.70783405 -14.41796875 74.7890625 C-3.63058368 72.98833365 6.34976742 67.51032561 12.7578125 58.5390625 C18.50156012 49.29912068 21.19593151 39.84591045 19.375 28.9375 C16.71544693 17.8237385 10.66265726 8.67036803 0.9375 2.625 C-15.43675143 -6.44722038 -33.49074014 -3.71480975 -47.1796875 8.9765625 Z " fill="#FFFFFF" transform="translate(59,4)"/>
<path d="M0 0 C4.11244566 0.50660563 7.58415175 2.80115218 11.125 4.8125 C11.75792969 5.15603516 12.39085937 5.49957031 13.04296875 5.85351562 C16.44989868 7.78121589 18.74892101 9.1867798 20 13 C17.01823491 15.02841163 14.01606262 17.02296374 11 19 C10.01966797 19.65548828 10.01966797 19.65548828 9.01953125 20.32421875 C4.61981044 23.09225502 4.61981044 23.09225502 1.296875 22.59765625 C0.53890625 22.40042969 -0.2190625 22.20320313 -1 22 C-1.02887814 18.52085059 -1.04675687 15.04173169 -1.0625 11.5625 C-1.07087891 10.56927734 -1.07925781 9.57605469 -1.08789062 8.55273438 C-1.09111328 7.60849609 -1.09433594 6.66425781 -1.09765625 5.69140625 C-1.10289307 4.81685791 -1.10812988 3.94230957 -1.11352539 3.04125977 C-1 1 -1 1 0 0 Z " fill="#FFFFFF" transform="translate(33,28)"/>
</svg>
